<svg width="256" height="256" viewBox="0 0 256 256" fill="none" xmlns="http://www.w3.org/2000/svg">
<rect x="10" y="10" width="236" height="236" rx="118" fill="url(#paint0_linear)"/>
<path fill-rule="evenodd" clip-rule="evenodd" d="M128 31.9998C123.747 31.9998 119.561 32.2762 115.457 32.8114L111.649 33.3081L110.656 25.6926L114.464 25.196C117.653 24.7799 120.888 24.5089 124.16 24.3897V24.3198H131.84V24.3897C135.113 24.5089 138.347 24.7799 141.537 25.196L145.345 25.6926L144.351 33.3081L140.544 32.8114C136.44 32.2762 132.253 31.9998 128 31.9998ZM164.142 30.7177L167.689 32.1886C176.12 35.6848 183.988 40.2604 191.121 45.742L194.166 48.0818L189.486 54.1714L186.442 51.8316C179.834 46.7543 172.549 42.5184 164.747 39.2828L161.2 37.8119L164.142 30.7177ZM94.8008 37.8119L91.2537 39.2828C83.4512 42.5184 76.1663 46.7543 69.5591 51.8316L66.5143 54.1714L61.8347 48.0818L64.8795 45.742C72.0127 40.2604 79.8808 35.6848 88.3118 32.1886L91.859 30.7177L94.8008 37.8119ZM207.918 61.8342L210.258 64.879C215.74 72.0122 220.315 79.8803 223.811 88.3114L225.282 91.8585L218.188 94.8003L216.717 91.2532C213.482 83.4507 209.246 76.1658 204.168 69.5586L201.829 66.5138L207.918 61.8342ZM54.1719 66.5138L51.8321 69.5586C46.7548 76.1658 42.5189 83.4507 39.2833 91.2532L37.8124 94.8003L30.7182 91.8585L32.1891 88.3114C35.6853 79.8803 40.2609 72.0122 45.7425 64.879L48.0823 61.8342L54.1719 66.5138ZM33.3086 111.649L32.8119 115.456C32.2767 119.56 32.0003 123.747 32.0003 128C32.0003 132.253 32.2767 136.44 32.8119 140.543L33.3086 144.351L25.6931 145.344L25.1964 141.537C24.7804 138.347 24.5094 135.112 24.3902 131.84H24.3203V124.16H24.3902C24.5094 120.887 24.7804 117.653 25.1964 114.463L25.6931 110.655L33.3086 111.649ZM230.307 110.655L230.804 114.463C231.22 117.653 231.491 120.887 231.61 124.16H231.68V131.84H231.61C231.491 135.112 231.22 138.347 230.804 141.537L230.307 145.344L222.692 144.351L223.189 140.543C223.724 136.44 224 132.253 224 128C224 123.747 223.724 119.56 223.189 115.456L222.692 111.649L230.307 110.655ZM37.8124 161.199L39.2833 164.746C42.5189 172.549 46.7548 179.834 51.8321 186.441L54.1719 189.486L48.0823 194.165L45.7425 191.121C40.2609 183.987 35.6853 176.119 32.1891 167.688L30.7182 164.141L37.8124 161.199ZM225.282 164.141L223.811 167.688C220.315 176.119 215.74 183.987 210.258 191.121L207.918 194.165L201.829 189.486L204.168 186.441C209.246 179.834 213.482 172.549 216.717 164.746L218.188 161.199L225.282 164.141ZM66.5143 201.828L69.5591 204.168C76.1663 209.245 83.4512 213.481 91.2537 216.717L94.8008 218.188L91.859 225.282L88.3118 223.811C79.8808 220.315 72.0127 215.739 64.8795 210.258L61.8347 207.918L66.5143 201.828ZM194.166 207.918L191.121 210.258C183.988 215.739 176.12 220.315 167.689 223.811L164.142 225.282L161.2 218.188L164.747 216.717C172.549 213.481 179.834 209.245 186.442 204.168L189.486 201.828L194.166 207.918ZM111.649 222.692L115.457 223.188C119.561 223.723 123.747 224 128 224C132.253 224 136.44 223.723 140.544 223.188L144.351 222.692L145.345 230.307L141.537 230.804C138.347 231.22 135.113 231.491 131.84 231.61V231.68H124.16V231.61C120.888 231.491 117.653 231.22 114.464 230.804L110.656 230.307L111.649 222.692Z" fill="#FFC7D2" fill-opacity="0.5"/>
<path d="M242.666 154.934L179.815 92.083L112.103 106.214L73.2422 160.973L154.935 242.665L155.135 242.865C198.513 232.657 232.658 198.512 242.865 155.133L242.666 154.934Z" fill="url(#paint1_linear)"/>
<path fill-rule="evenodd" clip-rule="evenodd" d="M74.8754 96.8579C69 102.716 69 112.144 69 131C69 149.856 69 159.284 74.8754 165.142C80.7509 171 90.2072 171 109.12 171H146.88C165.793 171 175.249 171 181.125 165.142C187 159.284 187 149.856 187 131C187 112.144 187 102.716 181.125 96.8579C175.249 91 165.793 91 146.88 91H109.12C90.2072 91 80.7509 91 74.8754 96.8579ZM113.84 149.339L145.7 131L113.84 112.661V149.339Z" fill="url(#paint2_linear)"/>
<path fill-rule="evenodd" clip-rule="evenodd" d="M74.8754 93.8579C69 99.7157 69 109.144 69 128C69 146.856 69 156.284 74.8754 162.142C80.7509 168 90.2072 168 109.12 168H146.88C165.793 168 175.249 168 181.125 162.142C187 156.284 187 146.856 187 128C187 109.144 187 99.7157 181.125 93.8579C175.249 88 165.793 88 146.88 88H109.12C90.2072 88 80.7509 88 74.8754 93.8579ZM113.84 146.339L145.7 128L113.84 109.661V146.339Z" fill="url(#paint3_linear)"/>
<defs>
<linearGradient id="paint0_linear" x1="41.27" y1="27.11" x2="210.01" y2="195.85" gradientUnits="userSpaceOnUse">
<stop stop-color="#E44567"/>
<stop offset="1" stop-color="#BF1438"/>
</linearGradient>
<linearGradient id="paint1_linear" x1="112.692" y1="125.056" x2="209.844" y2="210.432" gradientUnits="userSpaceOnUse">
<stop stop-opacity="0.2"/>
<stop offset="1" stop-opacity="0"/>
</linearGradient>
<linearGradient id="paint2_linear" x1="79.62" y1="91" x2="158.443" y2="170.06" gradientUnits="userSpaceOnUse">
<stop stop-color="#B39DA1"/>
<stop offset="0.435306" stop-color="#B58E96"/>
<stop offset="1" stop-color="#B9828E"/>
</linearGradient>
<linearGradient id="paint3_linear" x1="79.62" y1="88" x2="158.443" y2="167.06" gradientUnits="userSpaceOnUse">
<stop stop-color="#FDE0E6"/>
<stop offset="0.435306" stop-color="#F5C3CE"/>
<stop offset="1" stop-color="#FFBCCA"/>
</linearGradient>
</defs>
</svg>
